/* XPM */
static char * labs_xpm[] = {
"32 32 473 2",
"  	c None",
". 	c #F3EB63",
"+ 	c #F3EB5E",
"@ 	c #F1EB5E",
"# 	c #F1E95E",
"$ 	c #F1E95D",
"% 	c #F1EB5B",
"& 	c #F3EB56",
"* 	c #F3EB51",
"= 	c #F3EB46",
"- 	c #F3E93A",
"; 	c #F1E82C",
"> 	c #F0E61D",
", 	c #F0E413",
"' 	c #F0E40E",
") 	c #F0E40D",
"! 	c #F1E40D",
"~ 	c #F0E40B",
"{ 	c #EDE10B",
"] 	c #E8DC0D",
"^ 	c #DFD521",
"/ 	c #F6F072",
"( 	c #FBF583",
"_ 	c #FDF672",
": 	c #FDF56C",
"< 	c #FCF56C",
"[ 	c #FCF56B",
"} 	c #FDF56A",
"| 	c #FDF569",
"1 	c #FCF566",
"2 	c #FCF561",
"3 	c #FDF55B",
"4 	c #FDF454",
"5 	c #FCF44C",
"6 	c #FCF346",
"7 	c #FCF341",
"8 	c #FCF33D",
"9 	c #FCF239",
"0 	c #FCF236",
"a 	c #FCF234",
"b 	c #FCF232",
"c 	c #FCF22F",
"d 	c #FCF22E",
"e 	c #FCF12C",
"f 	c #FBF12A",
"g 	c #FAF028",
"h 	c #F2E725",
"i 	c #D9CE19",
"j 	c #FBF584",
"k 	c #FEF435",
"l 	c #FFF313",
"m 	c #FFF311",
"n 	c #FFF310",
"o 	c #FFF30F",
"p 	c #FFF30E",
"q 	c #FFF30D",
"r 	c #FEF214",
"s 	c #ECE21E",
"t 	c #C9BF1F",
"u 	c #F3ED63",
"v 	c #F5EA19",
"w 	c #C9BF09",
"x 	c #FFF31D",
"y 	c #EFE757",
"z 	c #C5C05D",
"A 	c #BBB54D",
"B 	c #E3DB36",
"C 	c #EBE348",
"D 	c #CDC752",
"E 	c #CEC752",
"F 	c #CFC84D",
"G 	c #E9E03C",
"H 	c #FFF31A",
"I 	c #FBF245",
"J 	c #E9DF2A",
"K 	c #FEF20C",
"L 	c #FFF318",
"M 	c #EDE54E",
"N 	c #ECE11A",
"O 	c #F6EA13",
"P 	c #C9BF08",
"Q 	c #F0E85E",
"R 	c #BDB96B",
"S 	c #34342A",
"T 	c #191913",
"U 	c #171611",
"V 	c #1D1D15",
"W 	c #958D12",
"X 	c #9F992E",
"Y 	c #1C1C16",
"Z 	c #1B1B15",
"` 	c #201F18",
" .	c #66621D",
"..	c #F3E70E",
"+.	c #FEF310",
"@.	c #878228",
"#.	c #83780A",
"$.	c #FEF10C",
"%.	c #FEF317",
"&.	c #595623",
"*.	c #BCAD09",
"=.	c #F5E910",
"-.	c #C5BA06",
";.	c #EEE65D",
">.	c #F5EB3C",
",.	c #303024",
"'.	c #11100C",
").	c #4A4208",
"!.	c #534D0B",
"~.	c #11110D",
"{.	c #1B1A0C",
"].	c #90891E",
"^.	c #12120E",
"/.	c #252209",
"(.	c #19170A",
"_.	c #12110D",
":.	c #70690C",
"<.	c #FCF01A",
"[.	c #757239",
"}.	c #CBBB09",
"|.	c #FAF039",
"1.	c #58521D",
"2.	c #EDDE0A",
"3.	c #F4E80E",
"4.	c #C0B706",
"5.	c #EDE45B",
"6.	c #E4D814",
"7.	c #796E07",
"8.	c #7B7007",
"9.	c #C0B83D",
"0.	c #8A8853",
"a.	c #14140F",
"b.	c #312C0A",
"c.	c #8F881B",
"d.	c #11110C",
"e.	c #AFA008",
"f.	c #D3C409",
"g.	c #2A290E",
"h.	c #25220C",
"i.	c #E7DC33",
"j.	c #564F19",
"k.	c #F0E20B",
"l.	c #FFF423",
"m.	c #F5EC43",
"n.	c #EEE319",
"o.	c #BDB74A",
"p.	c #887D0F",
"q.	c #FDF33B",
"r.	c #FFF317",
"s.	c #FFF425",
"t.	c #FFF42B",
"u.	c #F3E70D",
"v.	c #BDB306",
"w.	c #EBE35B",
"x.	c #FBF46B",
"y.	c #FEF312",
"z.	c #FEF20F",
"A.	c #FEF213",
"B.	c #787428",
"C.	c #6D660E",
"D.	c #9C962C",
"E.	c #13120E",
"F.	c #BAAC0A",
"G.	c #FFF314",
"H.	c #6A6624",
"I.	c #15140C",
"J.	c #AAA231",
"K.	c #827709",
"L.	c #FDF111",
"M.	c #E2DB57",
"N.	c #958D3D",
"O.	c #575533",
"P.	c #C3B61A",
"Q.	c #716E38",
"R.	c #A29A33",
"S.	c #847B20",
"T.	c #958E1E",
"U.	c #A49E4D",
"V.	c #635C15",
"W.	c #E4D70B",
"X.	c #BAB006",
"Y.	c #EBE359",
"Z.	c #FBF469",
"`.	c #E3DC49",
" +	c #A8A457",
".+	c #A09C4A",
"++	c #AFA20C",
"@+	c #68600C",
"#+	c #6C671F",
"$+	c #11110B",
"%+	c #BCAF0D",
"&+	c #4C4B31",
"*+	c #201E0B",
"=+	c #6F6B24",
"-+	c #CBBC0A",
";+	c #EAE351",
">+	c #7B7220",
",+	c #E7DC38",
"'+	c #595317",
")+	c #E1D73E",
"!+	c #403D18",
"~+	c #AE9F0B",
"{+	c #C3BC4D",
"]+	c #635C11",
"^+	c #5F5810",
"/+	c #E9DA0A",
"(+	c #EDE00B",
"_+	c #B8AD06",
":+	c #E9E156",
"<+	c #FBF368",
"[+	c #C8BF18",
"}+	c #14130F",
"|+	c #8C8626",
"1+	c #9D9A5A",
"2+	c #151510",
"3+	c #11100B",
"4+	c #665F15",
"5+	c #6C6932",
"6+	c #64634A",
"7+	c #171712",
"8+	c #544F10",
"9+	c #564F15",
"0+	c #F1E63F",
"a+	c #757242",
"b+	c #D1C320",
"c+	c #949153",
"d+	c #90840F",
"e+	c #ACA747",
"f+	c #726709",
"g+	c #F6EB3E",
"h+	c #595733",
"i+	c #BFB008",
"j+	c #4D490D",
"k+	c #CEC10A",
"l+	c #EFE30B",
"m+	c #B5AA06",
"n+	c #E9E153",
"o+	c #FBF365",
"p+	c #F7EA10",
"q+	c #443E0B",
"r+	c #161510",
"s+	c #453F09",
"t+	c #90881C",
"u+	c #12120D",
"v+	c #10100C",
"w+	c #221F0A",
"x+	c #8D851E",
"y+	c #7A731F",
"z+	c #958E32",
"A+	c #4A4614",
"B+	c #A9A13B",
"C+	c #5D5A1B",
"D+	c #9D942D",
"E+	c #6B651F",
"F+	c #BEB32A",
"G+	c #88844A",
"H+	c #A49814",
"I+	c #BEB83A",
"J+	c #948E30",
"K+	c #C5B925",
"L+	c #E0D518",
"M+	c #B0A606",
"N+	c #E9DF50",
"O+	c #FBF363",
"P+	c #FEF210",
"Q+	c #E3D40A",
"R+	c #4A4207",
"S+	c #514907",
"T+	c #867A07",
"U+	c #E2D40A",
"V+	c #B6AA0E",
"W+	c #635906",
"X+	c #645A06",
"Y+	c #817506",
"Z+	c #CFC009",
"`+	c #BDB00B",
" @	c #908307",
".@	c #DACB0A",
"+@	c #827607",
"@@	c #DBCB09",
"#@	c #8E8309",
"$@	c #C6B708",
"%@	c #C5B80A",
"&@	c #84790B",
"*@	c #C5B608",
"=@	c #F6E90C",
"-@	c #827608",
";@	c #AA9C08",
">@	c #D9CB0D",
",@	c #C4B609",
"'@	c #ADA304",
")@	c #E9DF4E",
"!@	c #FBF35F",
"~@	c #FDF10C",
"{@	c #F7EA0B",
"]@	c #F9EC0C",
"^@	c #FDF00C",
"/@	c #ECE00B",
"(@	c #AAA004",
"_@	c #E9DF4C",
":@	c #FAF35C",
"<@	c #EBDF0B",
"[@	c #A69C04",
"}@	c #E8DE4C",
"|@	c #F4EC64",
"1@	c #F6EC33",
"2@	c #F6EC37",
"3@	c #F6EC39",
"4@	c #F5EC39",
"5@	c #F5EB39",
"6@	c #F4EB39",
"7@	c #F4EB38",
"8@	c #F4EA37",
"9@	c #F4EA35",
"0@	c #F4EA33",
"a@	c #F3E931",
"b@	c #F3E92F",
"c@	c #F3E92D",
"d@	c #F3E82B",
"e@	c #F2E82A",
"f@	c #F2E829",
"g@	c #F3E827",
"h@	c #F3E925",
"i@	c #F5EA21",
"j@	c #E3D815",
"k@	c #A59904",
"l@	c #D6D2A6",
"m@	c #E9E8E3",
"n@	c #EBEBEB",
"o@	c #EDEDED",
"p@	c #EFEFEF",
"q@	c #F0F0F0",
"r@	c #F1F1F1",
"s@	c #F2F2F2",
"t@	c #F3F3F3",
"u@	c #F4F4F4",
"v@	c #EEEEEE",
"w@	c #DBDAD3",
"x@	c #9E9B70",
"y@	c #E4E4E4",
"z@	c #F6F6F6",
"A@	c #F7F7F7",
"B@	c #F9F9F9",
"C@	c #FAFAFA",
"D@	c #FBFBFB",
"E@	c #F8F8F8",
"F@	c #F5F5F5",
"G@	c #E2E2E2",
"H@	c #AAAAAA",
"I@	c #E1E1E1",
"J@	c #A8A8A8",
"K@	c #E8E8E8",
"L@	c #525252",
"M@	c #222222",
"N@	c #6E6E6E",
"O@	c #D7D7D7",
"P@	c #E5E5E5",
"Q@	c #DDDDDD",
"R@	c #CDCDCD",
"S@	c #434343",
"T@	c #D9D9D9",
"U@	c #BDBDBD",
"V@	c #727272",
"W@	c #ECECEC",
"X@	c #DBDBDB",
"Y@	c #DFDFDF",
"Z@	c #E9E9E9",
"`@	c #B5B5B5",
" #	c #1D1D1D",
".#	c #939393",
"+#	c #616161",
"@#	c #303030",
"##	c #3B3B3B",
"$#	c #797979",
"%#	c #3A3A3A",
"&#	c #595959",
"*#	c #0F0F0F",
"=#	c #3E3E3E",
"-#	c #555555",
";#	c #111111",
">#	c #262626",
",#	c #545454",
"'#	c #313131",
")#	c #6C6C6C",
"!#	c #1F1F1F",
"~#	c #494949",
"{#	c #E7E7E7",
"]#	c #C9C9C9",
"^#	c #0C0C0C",
"/#	c #5B5B5B",
"(#	c #161616",
"_#	c #2D2D2D",
":#	c #B7B7B7",
"<#	c #212121",
"[#	c #484848",
"}#	c #424242",
"|#	c #101010",
"1#	c #696969",
"2#	c #282828",
"3#	c #5E5E5E",
"4#	c #474747",
"5#	c #373737",
"6#	c #191919",
"7#	c #7A7A7A",
"8#	c #464646",
"9#	c #121212",
"0#	c #ABABAB",
"a#	c #BFBFBF",
"b#	c #9E9E9E",
"c#	c #B1B1B1",
"d#	c #ACACAC",
"e#	c #E0E0E0",
"f#	c #989898",
"g#	c #BBBBBB",
"h#	c #B2B2B2",
"i#	c #B6B6B6",
"j#	c #969696",
"k#	c #959595",
"l#	c #A6A6A6",
"m#	c #ADADAD",
"n#	c #D2D2D2",
"o#	c #6A6A6A",
"p#	c #272727",
"q#	c #C1C1C1",
"r#	c #DEDEDE",
"s#	c #EAEAEA",
"t#	c #E3E3E3",
"u#	c #DADADA",
"v#	c #2A2A2A",
"w#	c #AEAEAE",
"x#	c #535353",
"y#	c #292929",
"z#	c #515151",
"A#	c #4E4E4E",
"B#	c #3D3D3D",
"C#	c #393939",
"D#	c #5A5A5A",
"E#	c #676767",
"F#	c #5C5C5C",
"G#	c #707070",
"H#	c #414141",
"I#	c #060606",
"J#	c #E6E6E6",
"K#	c #353535",
"L#	c #818181",
"M#	c #7B7B7B",
"N#	c #656565",
"O#	c #444444",
"P#	c #131313",
"Q#	c #838383",
"R#	c #2C2C2C",
"S#	c #4C4C4C",
"T#	c #6B6B6B",
"U#	c #0E0E0E",
"V#	c #FCFCFC",
"W#	c #B0B0B0",
"X#	c #999999",
"Y#	c #9A9A9A",
"Z#	c #9B9B9B",
"`#	c #D0D0D0",
" $	c #AFAFAF",
".$	c #A5A5A5",
"+$	c #B3B3B3",
"@$	c #9C9C9C",
"#$	c #FDFDFD",
"$$	c #D4D4D4",
"%$	c #CFCFCF",
"&$	c #CACACA",
"*$	c #C7C7C7",
"=$	c #C5C5C5",
"-$	c #C4C4C4",
";$	c #C2C2C2",
">$	c #B8B8B8",
"      . + @ # # $ $ % & * = - ; > , ' ' ' ' ) ! ! ! ~ { ] ^     ",
"  / ( _ : < < < < [ } | 1 2 3 4 5 6 7 8 9 0 a b c d e f g h i   ",
"  j k l m m m m m m m m n n o o p q q q q q q q q q q q q r s t ",
"u _ l q q q q q q q q q q q q q q q q q q q q q q q q q q q v w ",
"+ : m x y z A B l C D D E F G H q n I J K q q q L M N K q q O P ",
"Q < x R S T U V W X Y Z Z Z `  ...+.@.#.$.q q q %.&.*.K q q =.-.",
";.< >.,.'.).!.~.{.].^.'./.(.~._.:.<.[.}.K q q q |.1.2.q q q 3.4.",
"5.[ 6.7.8.9.0.a.b.c.^.d.e.f.g._.h.i.j.k.p l.m.n.o.p.q.r.s.t.u.v.",
"w.x.y.z.A.B.a.d.C.D.E.d.F.G.H.~.I.J.K.L.M.N.O.P.Q.R.S.T.U.V.W.X.",
"Y.Z.`. +.+++@+_.d.#+_.$+%+6 &+~.*+=+-+;+>+,+'+)+!+~+{+]+^+/+(+_+",
":+<+[+}+^.|+1+2+3+4+~.~.5+6+7+~.8+9+0+a+b+c+d+e+f+g+h+i+j+k+l+m+",
"n+o+p+q+d.a.r+'.s+t+u+v+'.d.d.w+x+y+z+A+B+C+D+E+F+G+H+I+J+K+L+M+",
"N+O+P+Q+7.R+S+T+U+V+W+W+W+X+Y+Z+`+ @.@+@@@#@$@%@&@*@=@-@;@>@,@'@",
")@!@n K ~@{@]@$.K $.^@^@^@^@K K K K K K K K K K K K K K K K /@(@",
"_@:@n q q q q q q q q q q q q q q q q q q q q q q q q q q q <@[@",
"}@|@1@2@3@3@3@3@4@4@4@4@4@5@5@5@6@7@8@9@0@a@b@c@d@e@f@g@h@i@j@k@",
"l@m@n@o@p@q@r@s@t@t@t@u@u@u@u@u@u@t@t@t@s@s@s@r@q@q@p@v@v@o@w@x@",
"y@t@t@z@A@B@B@C@D@D@D@D@C@C@C@C@C@C@B@B@B@E@E@A@z@z@F@u@t@t@G@H@",
"y@u@F@A@B@C@C@B@D@C@C@C@B@B@B@B@B@E@E@E@A@A@z@F@F@u@u@t@s@s@I@J@",
"K@F@A@B@C@s@L@M@N@K@y@q@O@q@P@Q@R@S@T@U@V@W@O@t@X@Y@s@s@s@s@I@H@",
"Z@A@E@C@C@`@ #.#+#@###$#%#&#*#=#-#;#>#,#S@'#S@)#!#~#{#s@t@t@I@H@",
"n@A@B@C@C@]#^#/#(#_#:#<#[#}#|#1#S@2#3#4#5#6#7#V@8#9#O@t@u@F@I@0#",
"o@E@B@B@B@E@a#b#c#d#e#0#H@f#*#.#R@d#g#h#i#U@j#X@k#l#s@u@F@z@G@m#",
"o@E@E@A@z@z@F@F@F@u@s@r@q@W@n#q@r@r@r@r@r@s@s@t@u@u@F@z@A@E@y@m#",
"o@z@z@F@u@t@s@o#p#2#q#{#X@Z@O@a#~#r#s#G@I@t#s@u#v#y@z@A@E@B@P@w#",
"Z@u@t@s@r@q@q@x#y#z#A#o#B#'#C#D#_#(#E#F#'#>#G#H#I#t#E@B@C@D@J#w#",
"K@s@r@p@p@v@v@L@K#F#L#|#M#6#N#O#'#-#P#Q#R#S#8#T#U#P@C@C@D@V#{#W#",
"t#p@v@o@o@W@W@h#X#Y#n#Z#r#g#X#`# $R@J@r@.$+$e#@$l#t@D@V#V##${#w#",
"r#n@W@W@n@n@n@n@W@o@v@p@q@r@s@t@u@F@z@A@E@E@B@C@D@D@V##$#$#$t#l#",
"  t#n@s#s#s#n@W@o@v@p@q@r@s@t@u@F@z@A@E@B@C@D@D@V#V##$#$#$B@R@  ",
"  $$e#P@P@P@P@J#{#{#K@K@K@Z@Z@s#s#s#s#s#s#Z@Z@K@K@K@K@{#y@R@.$  ",
"      %$R@&$*$=$-$;$;$;$;$-$-$;$;$a#g#>$`@+$h#h#W#W#W#W#l#      "};
